<svg xmlns="http://www.w3.org/2000/svg" viewBox="0 0 48 48" fill="none">
  <defs>
    <linearGradient id="bg" x1="0" y1="0" x2="1" y2="1">
      <stop offset="0%" stop-color="#061828"/>
      <stop offset="100%" stop-color="#030D18"/>
    </linearGradient>
    <linearGradient id="bd" x1="0" y1="0" x2="1" y2="1">
      <stop offset="0%" stop-color="#00D4FF"/>
      <stop offset="100%" stop-color="#0077CC"/>
    </linearGradient>
    <linearGradient id="tx" x1="0" y1="0" x2="1" y2="1">
      <stop offset="0%" stop-color="#60E8FF"/>
      <stop offset="100%" stop-color="#00B4FF"/>
    </linearGradient>
  </defs>
  <polygon points="24,2 42,12 42,36 24,46 6,36 6,12" fill="url(#bg)"/>
  <polygon points="24,2 42,12 42,36 24,46 6,36 6,12" fill="none" stroke="url(#bd)" stroke-width="1.6"/>
  <polygon points="24,5.5 39,14 39,34 24,42.5 9,34 9,14" fill="none" stroke="rgba(0,180,255,0.14)" stroke-width="0.8"/>
  <rect x="13" y="20" width="22" height="3.5" rx="1.75" fill="url(#tx)"/>
  <rect x="20.5" y="20" width="7" height="14" rx="1.75" fill="url(#tx)"/>
  <text x="34.5" y="22" font-family="Arial Black,sans-serif" font-weight="900" font-size="8.5" fill="#00D4FF" text-anchor="middle">7</text>
</svg>
